<svg xmlns="http://www.w3.org/2000/svg" viewBox="0 0 226.26 347.5"><defs><style>.cls-1,.cls-2{fill:none;stroke-linecap:round;stroke-linejoin:round;stroke-width:13px;}.cls-1{stroke:#f2f2f2;}.cls-2{stroke:#d4d3d6;}</style></defs><g id="Layer_2" data-name="Layer 2"><g id="Layer_1-2" data-name="Layer 1"><polygon class="cls-1" points="71.99 341 155.3 341 166.61 328.66 166.61 300.2 148.1 291.63 169.01 263.86 169.01 191.86 57.93 191.86 57.93 260.77 77.81 294.71 62.04 299.86 62.04 327.97 71.99 341"/><polygon class="cls-1" points="105.59 134.94 86.39 134.94 46.61 145.57 40.79 173 57.93 191.86 169.01 191.86 190.61 169.91 177.93 143.17 142.27 134.94 105.59 134.94"/><rect class="cls-1" x="105.59" y="111.97" width="16.8" height="22.97"/><polygon class="cls-1" points="113.99 11.51 101.81 11.51 59.64 26.94 47.64 69.11 47.64 77 47.64 114.37 76.1 111.97 105.59 111.97 122.39 111.97 145.01 111.97 182.39 114.37 182.39 64.66 167.3 24.54 133.7 11.51 113.99 11.51"/><polygon class="cls-1" points="36.33 77.69 25.36 86.26 12.67 111.97 12.67 125.34 21.93 129.46 31.87 127.74 47.64 92.77 47.64 78.71 36.33 77.69"/><polygon class="cls-1" points="193.01 77.69 206.04 86.26 218.04 108.2 219.76 123.46 214.61 129.46 205.01 129.46 199.19 126.03 193.01 105.11 182.39 87.28 182.39 77.69 193.01 77.69"/><polygon class="cls-2" points="65.81 335.99 149.13 335.99 160.44 323.64 160.44 295.19 141.93 286.61 162.84 258.84 162.84 186.84 51.76 186.84 51.76 255.76 71.64 289.7 55.87 294.84 55.87 322.96 65.81 335.99"/><polygon class="cls-2" points="99.41 129.93 80.21 129.93 40.44 140.56 34.61 167.99 51.76 186.84 162.84 186.84 184.44 164.9 171.76 138.16 136.1 129.93 99.41 129.93"/><rect class="cls-2" x="99.41" y="106.96" width="16.8" height="22.97"/><polygon class="cls-2" points="107.81 6.5 95.64 6.5 53.47 21.93 41.47 64.1 41.47 71.99 41.47 109.36 69.93 106.96 99.41 106.96 116.21 106.96 138.84 106.96 176.21 109.36 176.21 59.64 161.13 19.53 127.53 6.5 107.81 6.5"/><polygon class="cls-2" points="30.16 72.67 19.19 81.24 6.5 106.96 6.5 120.33 15.76 124.44 25.7 122.73 41.47 87.76 41.47 73.7 30.16 72.67"/><polygon class="cls-2" points="186.84 72.67 199.87 81.24 211.87 103.19 213.59 118.44 208.44 124.44 198.84 124.44 193.01 121.01 186.84 100.1 176.21 82.27 176.21 72.67 186.84 72.67"/></g></g></svg>